<!--?xml version="1.0" encoding="UTF-8" standalone="no"?-->
<svg version="1.0" width="100%" height="100%" viewBox="0 0 618 404.32126" preserveAspectRatio="xMidYMid" id="svg13" sodipodi:docname="logo_arcadia.svg" xmlns:inkscape="http://www.inkscape.org/namespaces/inkscape" xmlns:sodipodi="http://sodipodi.sourceforge.net/DTD/sodipodi-0.dtd" xmlns="http://www.w3.org/2000/svg" xmlns:svg="http://www.w3.org/2000/svg">
  <defs id="defs13"></defs>
  <sodipodi:namedview id="namedview13" pagecolor="#ffffff" bordercolor="#000000" borderopacity="0.25" inkscape:showpageshadow="2" inkscape:pageopacity="0.0" inkscape:pagecheckerboard="0" inkscape:deskcolor="#d1d1d1" inkscape:document-units="pt"></sodipodi:namedview>
  <g transform="matrix(0.1,0,0,-0.1,-231,686.3)" fill="#000000" stroke="none" id="g13">
    <path d="m 4230,6849 c 0,-20 24,-55 83,-119 82,-91 83,-92 42,-129 -19,-17 -35,-36 -35,-41 0,-15 40,-22 55,-10 11,9 15,9 15,1 0,-15 27,-14 37,2 4,7 26,25 48,40 22,15 58,41 79,57 22,17 46,28 53,26 21,-8 15,9 -11,33 -14,13 -29,20 -35,16 -15,-9 -13,15 4,45 8,14 14,40 15,59 v 34 l -29,-39 c -29,-41 -86,-94 -101,-94 -5,0 -19,13 -32,29 -13,17 -56,46 -95,65 -77,38 -93,42 -93,25 z" id="path1" inkscape:export-filename="path1.svg" inkscape:export-xdpi="96" inkscape:export-ydpi="96" class="svg-elem-1"></path>
    <path d="m 6910,6793 c 0,-18 70,-83 88,-83 5,0 17,-9 27,-20 9,-10 39,-26 66,-35 29,-10 50,-24 54,-35 3,-10 24,-34 45,-54 22,-20 42,-46 45,-59 6,-21 0,-26 -45,-45 -43,-18 -51,-25 -48,-44 2,-15 15,-27 41,-37 35,-13 41,-13 76,7 21,12 44,22 51,22 7,0 39,17 73,38 l 61,37 h 148 c 81,0 148,3 148,8 0,4 0,14 0,22 0,20 -110,125 -130,125 -8,0 -23,-7 -33,-14 -16,-12 -23,-12 -47,2 -24,14 -33,15 -49,5 -10,-6 -35,-15 -56,-19 -32,-6 -40,-3 -72,27 -19,19 -46,53 -59,75 -14,23 -37,47 -52,53 -39,16 -208,41 -274,41 -49,0 -58,-3 -58,-17 z" id="path2" class="svg-elem-2"></path>
    <path d="m 4965,6689 c -11,-7 -22,-15 -25,-18 -32,-38 -85,-71 -114,-71 -29,0 -36,-5 -61,-52 -15,-29 -37,-65 -47,-81 -18,-25 -21,-26 -41,-12 -12,8 -34,15 -49,15 -15,0 -45,7 -67,16 -33,13 -46,14 -76,4 -49,-16 -99,-62 -133,-121 -15,-27 -30,-49 -34,-49 -4,0 -19,18 -33,40 -14,22 -28,40 -32,40 -26,0 -95,-50 -129,-93 -45,-58 -58,-61 -134,-32 -34,13 -50,14 -68,5 -13,-6 -22,-16 -19,-23 21,-57 21,-57 -25,-51 -38,5 -48,2 -82,-25 -21,-17 -48,-31 -60,-31 -12,0 -27,-9 -34,-20 -7,-11 -37,-31 -67,-44 -46,-21 -59,-23 -89,-14 -56,17 -107,-13 -152,-88 -11,-18 -12,-18 -31,5 -27,33 -63,23 -112,-31 l -38,-41 -46,18 c -69,26 -90,-2 -43,-60 23,-28 26,-29 58,-17 48,17 48,17 48,-29 0,-34 3,-40 18,-35 9,2 37,8 62,11 25,4 50,10 55,14 6,3 34,6 62,6 44,0 53,-3 53,-17 0,-21 22,-23 49,-6 15,9 33,5 97,-22 118,-49 171,-77 212,-114 20,-18 54,-39 75,-47 20,-7 44,-23 52,-35 7,-12 27,-24 43,-27 19,-4 31,-14 35,-27 3,-12 10,-20 14,-17 5,3 31,-12 58,-35 28,-22 82,-55 120,-73 71,-34 114,-75 78,-75 -10,1 -29,7 -43,15 -14,8 -31,14 -39,15 -27,0 22,-41 84,-72 103,-52 129,-78 170,-175 21,-49 52,-111 71,-139 58,-92 67,-117 74,-202 8,-100 35,-146 120,-205 66,-45 84,-81 75,-148 -8,-57 -24,-81 -56,-86 -19,-3 -21,-1 -11,9 19,19 14,33 -6,15 -10,-10 -25,-17 -33,-17 -8,0 -23,-7 -33,-15 -34,-26 -42,-16 -11,12 20,18 23,24 10,18 -11,-4 -39,-9 -62,-10 -22,-2 -47,-6 -54,-10 -9,-6 -10,6 -5,56 7,70 -7,64 -19,-8 -7,-47 -20,-62 -38,-44 -8,8 -14,5 -24,-11 l -12,-23 v 25 c -1,39 26,155 43,187 13,26 19,29 50,25 46,-5 48,14 3,33 -34,14 -34,15 -40,97 -13,165 -34,196 -148,223 -117,27 -187,30 -274,10 -62,-13 -86,-15 -120,-6 -55,14 -133,14 -171,1 -23,-8 -56,-5 -149,16 -144,31 -258,32 -354,3 -77,-23 -116,-24 -189,-3 -114,34 -248,7 -314,-63 -45,-47 -90,-156 -100,-241 -5,-42 -13,-107 -18,-145 -11,-77 -13,-171 -3,-180 15,-16 31,30 26,75 -3,26 -2,55 2,65 10,25 45,-87 45,-145 0,-75 -20,-106 -94,-142 -37,-18 -69,-30 -73,-26 -3,3 -4,7 -2,9 2,1 21,17 42,35 43,36 35,42 -17,11 -25,-14 -48,-19 -83,-17 -38,3 -51,-1 -65,-17 -16,-20 -16,-19 -13,10 2,17 7,64 10,105 7,90 -7,69 -25,-37 -11,-67 -14,-73 -36,-73 -20,0 -24,5 -25,33 0,29 -2,27 -18,-21 -10,-29 -21,-56 -25,-59 -3,-4 -6,29 -7,73 0,53 -3,73 -9,59 -5,-11 -9,-80 -9,-152 l -1,-133 h 3090 3090 v 66 c 0,36 -3,64 -7,62 -5,-2 -20,-10 -36,-17 -42,-22 -43,-6 -3,30 43,37 41,51 -2,20 -33,-23 -102,-29 -102,-9 0,6 -7,3 -15,-8 -15,-19 -15,-19 -9,1 5,15 -1,12 -19,-10 l -26,-30 5,40 c 6,60 14,89 27,97 9,6 9,8 0,8 -7,0 -13,12 -14,28 l -1,27 -12,-29 c -13,-28 -48,-55 -73,-56 -19,0 -15,18 5,23 9,3 0,3 -20,2 -21,-2 -39,2 -41,9 -3,7 -11,5 -24,-6 -11,-10 -27,-18 -37,-18 -19,0 -80,-24 -98,-39 -69,-57 -78,-62 -78,-48 0,22 48,77 79,90 25,11 25,12 -17,15 -25,2 -55,-3 -74,-12 -17,-9 -32,-16 -33,-16 0,0 1,30 3,66 3,48 1,65 -7,60 -6,-4 -11,-25 -11,-46 0,-31 -8,-48 -41,-87 -56,-65 -63,-65 -57,-4 l 5,51 h -38 c -25,0 -47,-8 -67,-25 -17,-14 -33,-25 -36,-25 -3,0 -6,16 -6,35 v 35 h 55 55 v 51 c 0,40 -3,49 -12,42 -7,-6 -22,-13 -33,-17 -16,-6 -13,0 10,25 l 30,31 -32,-16 c -18,-9 -45,-15 -61,-14 -15,1 -33,-1 -40,-6 -14,-8 -17,41 -3,62 4,7 6,25 3,38 l -5,25 -20,-33 c -20,-31 -22,-31 -25,-11 -4,29 14,54 71,98 25,19 55,49 68,67 27,40 171,183 199,198 31,17 189,18 199,1 6,-9 11,-10 15,-3 4,6 13,9 21,5 8,-3 15,-1 15,4 0,11 59,11 77,0 6,-4 23,-2 38,5 20,9 34,9 58,0 44,-15 122,-13 144,4 17,13 17,13 -4,14 -51,0 -124,22 -119,35 3,9 -8,15 -32,20 -20,4 -48,15 -63,26 -15,10 -35,19 -45,19 -9,0 -25,6 -33,14 -26,24 -110,22 -154,-3 -41,-23 -57,-26 -57,-11 0,6 6,10 14,10 39,0 19,21 -38,40 -35,11 -72,30 -82,41 -10,11 -28,19 -41,17 -13,-2 -28,5 -36,16 -11,15 -32,22 -83,27 -60,6 -72,5 -90,-12 -11,-10 -25,-19 -31,-19 -6,0 -18,-12 -28,-26 -15,-24 -21,-25 -64,-19 -45,6 -50,5 -75,-26 -22,-26 -29,-30 -37,-18 -13,21 -11,43 10,96 10,26 29,85 41,131 12,45 32,94 43,108 20,26 23,27 104,21 67,-5 83,-3 83,8 0,14 -72,87 -114,115 -13,8 -31,23 -41,33 -13,14 -20,15 -31,6 -11,-9 -11,-15 -3,-25 11,-13 4,-18 -21,-16 -8,1 -129,-229 -156,-296 -12,-29 -33,-67 -47,-86 -24,-31 -29,-33 -75,-28 -43,4 -53,1 -83,-26 -27,-23 -41,-28 -66,-25 -24,4 -35,0 -45,-16 -7,-12 -16,-21 -20,-21 -16,0 -6,57 25,150 l 32,95 60,3 c 33,2 64,7 68,11 8,8 -99,111 -114,111 -11,0 -61,-83 -118,-195 -63,-125 -156,-237 -217,-262 -24,-10 -44,-22 -44,-27 0,-4 -12,-22 -26,-40 -19,-22 -25,-25 -21,-11 3,11 9,32 13,48 8,33 39,57 74,57 15,0 35,6 45,14 18,13 18,15 -11,32 -17,11 -29,25 -27,32 3,7 -5,12 -21,12 -17,0 -26,5 -26,16 0,12 -6,15 -22,10 -13,-3 -29,-6 -35,-6 -7,0 -13,-9 -13,-21 0,-15 -4,-19 -16,-15 -8,3 -25,1 -37,-5 l -21,-12 22,-18 c 22,-17 22,-19 6,-56 -37,-86 -61,-126 -91,-154 -18,-15 -33,-35 -33,-43 0,-9 -9,-20 -20,-26 -23,-12 -23,-11 5,100 31,123 37,141 48,145 7,2 25,6 41,10 26,6 27,7 12,24 -9,10 -16,23 -16,30 0,7 -4,9 -10,6 -5,-3 -16,-3 -22,2 -20,13 -58,10 -58,-4 0,-7 -9,-13 -20,-13 -22,0 -26,-10 -9,-27 28,-28 -71,-170 -151,-218 -35,-21 -92,-94 -104,-133 -10,-31 8,-28 22,4 19,40 27,22 24,-48 -3,-63 -4,-65 -40,-84 -20,-10 -39,-21 -42,-24 -3,-3 -13,-12 -24,-20 -18,-14 -19,-13 -14,23 2,20 3,37 1,37 -1,0 -9,-12 -17,-27 -19,-36 -20,-17 -1,36 19,56 9,52 -17,-6 -21,-49 -33,-63 -55,-63 -18,0 -17,89 2,132 8,20 19,63 24,98 12,72 24,90 60,90 14,0 32,4 40,9 18,11 7,41 -15,41 -10,0 -14,5 -10,15 6,17 -22,50 -51,59 -11,3 -34,-1 -52,-10 -25,-12 -29,-19 -21,-29 8,-10 6,-15 -9,-20 -23,-7 -27,-20 -11,-30 6,-3 10,-10 10,-14 0,-17 -70,-96 -99,-110 -31,-17 -114,-118 -108,-134 1,-5 -7,-21 -19,-36 -13,-14 -31,-37 -42,-50 l -19,-24 8,64 c 8,68 4,91 -7,43 -17,-78 -21,-88 -32,-92 -7,-2 -12,3 -12,12 0,25 -15,19 -28,-11 l -11,-28 1,30 c 1,65 0,66 -27,40 -25,-25 -52,-34 -39,-13 5,8 0,9 -14,6 -12,-4 -24,-2 -27,2 -6,9 -94,-31 -137,-62 -40,-28 -34,-6 7,31 30,26 33,31 15,31 -24,0 -24,-2 -4,67 10,35 15,79 12,119 -3,54 -8,68 -33,95 -17,17 -46,39 -65,49 -19,10 -44,27 -54,39 -17,18 -18,25 -6,49 7,15 12,58 11,97 -2,89 14,114 140,215 64,52 107,96 135,139 53,80 93,120 198,201 83,63 114,97 59,64 -17,-9 -6,5 25,35 65,62 137,88 206,73 38,-8 47,-7 64,10 16,17 23,18 41,8 17,-9 26,-9 37,1 11,9 18,9 26,1 7,-7 22,-12 34,-12 12,0 29,-10 38,-22 15,-23 16,-23 31,-4 15,19 15,19 29,1 13,-18 14,-17 31,8 20,31 31,33 57,10 17,-15 19,-15 36,0 25,23 38,21 56,-5 l 15,-21 43,19 c 53,24 130,24 157,0 16,-15 31,-17 103,-11 87,7 176,32 161,45 -4,5 -35,10 -68,13 -68,6 -224,33 -232,41 -3,3 6,8 21,12 38,9 32,22 -16,34 -74,19 -102,30 -140,55 -21,14 -48,25 -60,25 -39,0 -62,10 -80,35 -16,21 -16,27 -3,59 17,41 32,46 37,14 5,-36 40,-30 57,10 17,37 24,39 58,12 14,-11 32,-20 39,-20 8,0 19,9 26,20 18,28 45,25 80,-11 l 31,-30 59,26 c 91,41 159,46 111,9 -17,-13 -17,-15 2,-29 13,-11 29,-13 50,-9 16,4 38,7 48,6 67,-7 127,-5 139,6 9,7 32,9 66,5 42,-5 66,0 127,22 41,15 75,31 75,36 0,5 -20,9 -44,9 -35,0 -48,5 -61,23 -26,38 -87,78 -100,67 -8,-7 -21,-7 -37,-1 -15,5 -30,6 -39,0 -8,-5 -28,-9 -44,-9 -25,0 -38,9 -69,49 -42,56 -62,65 -178,80 -43,6 -92,20 -112,32 -29,17 -46,20 -77,15 -38,-6 -43,-4 -83,38 -48,49 -49,49 -237,61 -84,5 -87,4 -124,-25 -21,-16 -56,-35 -79,-41 -22,-6 -51,-20 -63,-31 -17,-16 -29,-19 -57,-14 -72,14 -52,49 35,60 40,6 50,10 47,24 -2,12 -22,22 -65,32 -34,8 -70,23 -80,33 -11,9 -32,17 -48,17 -57,0 -106,24 -170,82 -93,85 -155,106 -170,57 -10,-30 -22,-23 -52,33 -16,31 -40,58 -56,66 -15,7 -82,17 -150,22 -67,5 -138,12 -157,15 -19,3 -44,0 -55,-6 z m 1085,-704 c 22,-12 27,-11 43,3 16,15 20,14 47,-2 17,-9 40,-16 51,-14 16,2 28,-7 44,-32 l 22,-35 -91,6 c -91,6 -91,6 -166,-33 -72,-37 -119,-46 -127,-22 -2,6 16,15 39,20 48,10 52,25 11,37 -16,4 -41,14 -58,21 -16,8 -41,18 -55,24 -23,10 -22,11 18,11 24,1 64,-4 88,-10 43,-11 47,-10 72,15 31,30 29,30 62,11 z M 3899,5853 c 17,4 33,2 36,-3 3,-6 22,-10 41,-10 31,0 35,-4 41,-31 5,-26 9,-30 30,-24 20,5 36,-4 79,-40 30,-26 54,-52 54,-60 0,-22 -27,-38 -47,-27 -22,13 -50,0 -79,-35 l -21,-25 -39,20 c -21,11 -52,37 -67,57 -17,21 -54,48 -90,66 -75,36 -107,65 -107,96 0,29 21,38 50,23 18,-10 25,-9 38,4 14,14 17,14 34,-1 12,-10 27,-14 47,-10 z m 331,-12 34,-28 47,23 c 76,39 183,32 192,-12 3,-19 1,-24 -10,-19 -9,3 -32,-5 -51,-17 -20,-13 -46,-29 -57,-35 -50,-31 -88,-43 -131,-43 -44,0 -51,4 -106,58 -32,33 -58,64 -58,70 0,12 49,29 85,31 12,1 36,-12 55,-28 z m 1354,-267 c 29,-28 19,-62 -34,-119 -61,-64 -85,-73 -106,-39 -17,24 -54,136 -49,142 2,2 21,10 42,17 53,19 128,19 147,-1 z m -1164,-13 c 0,-6 -4,-13 -10,-16 -5,-3 -10,1 -10,9 0,9 5,16 10,16 6,0 10,-4 10,-9 z m 263,-15 c -14,-19 -21,-22 -32,-13 -11,9 -8,14 15,24 16,7 30,12 32,13 2,0 -5,-11 -15,-24 z m 658,-5 c 20,-7 32,-26 53,-81 14,-39 26,-79 26,-89 0,-21 -39,-58 -159,-150 -128,-98 -144,-106 -165,-82 -9,10 -21,43 -26,72 l -9,54 48,45 c 27,25 65,74 84,110 41,76 107,156 116,141 4,-5 18,-14 32,-20 z m -783,8 c 17,-6 34,-19 37,-30 4,-11 11,-17 16,-13 6,3 16,3 24,0 12,-4 10,-16 -8,-65 -12,-34 -25,-61 -30,-61 -4,0 -26,17 -50,39 -23,21 -52,44 -65,50 -20,10 -22,17 -16,44 3,18 8,35 11,40 6,10 45,9 81,-4 z m 371,-10 c 15,-16 26,-19 50,-14 17,4 31,3 31,-1 0,-11 -81,-114 -91,-115 -5,-1 -15,-2 -21,-3 -7,0 -14,-13 -16,-28 -2,-16 -9,-28 -16,-28 -14,0 -156,118 -156,130 0,14 42,60 50,55 4,-3 23,2 41,10 51,21 104,19 128,-6 z m -705,-17 c 5,-3 25,-6 44,-6 27,-1 41,-9 63,-36 32,-40 48,-90 29,-90 -7,0 -21,11 -31,24 -12,15 -34,26 -60,30 -39,6 -116,60 -128,89 -4,10 65,1 83,-11 z m 906,-26 c 0,-7 -211,-168 -216,-164 -6,6 68,119 89,136 25,21 127,44 127,28 z m -381,-95 c 23,-27 41,-54 41,-61 0,-6 9,-25 21,-41 28,-39 17,-50 -33,-32 -69,23 -81,39 -76,100 3,29 1,50 -4,47 -16,-10 -30,7 -17,22 17,21 24,18 68,-35 z m -191,-27 c 17,-10 32,-23 32,-29 0,-19 -62,-76 -78,-73 -23,4 -39,42 -48,107 l -7,55 34,-21 c 19,-11 49,-29 67,-39 z m 522,20 c 0,-9 -103,-133 -138,-167 l -30,-28 -5,33 c -7,44 14,72 93,126 62,41 80,49 80,36 z m -413,-104 c 41,-39 48,-65 38,-148 -5,-37 -11,-92 -14,-122 l -6,-55 -21,30 c -77,108 -98,223 -55,303 15,29 20,28 58,-8 z m 645,-87 c -26,-37 -118,-123 -132,-123 -16,0 -12,12 15,53 24,34 124,112 133,102 2,-2 -5,-17 -16,-32 z m -328,-13 c -19,-32 -40,-44 -56,-34 -7,4 3,19 23,35 44,37 54,36 33,-1 z m 86,-108 c 0,-74 -10,-133 -21,-126 -25,15 -49,87 -49,147 0,79 15,99 48,62 17,-21 22,-38 22,-83 z m -117,-105 c 45,-85 66,-138 71,-176 9,-71 28,-106 75,-137 53,-34 67,-70 52,-130 -15,-59 -50,-113 -95,-147 l -36,-28 v 54 c 0,73 -24,148 -57,179 -16,14 -56,40 -91,58 -98,52 -123,97 -82,150 23,29 24,48 9,100 -16,53 -4,120 33,174 24,37 33,44 44,35 7,-6 42,-65 77,-132 z m 1990,-214 c -7,-2 -19,-2 -25,0 -7,3 -2,5 12,5 14,0 19,-2 13,-5 z m 835,-34 c 4,-22 -45,-79 -68,-79 -17,0 -40,44 -40,76 0,27 103,30 108,3 z m -344,-13 27,-14 -41,-42 -41,-43 -21,21 c -24,24 -33,73 -15,84 19,12 62,9 91,-6 z m 213,2 c 6,-7 16,-31 23,-53 l 13,-39 -44,-39 c -24,-22 -61,-51 -82,-65 -44,-29 -58,-22 -63,31 -4,28 3,42 36,80 22,25 40,49 40,53 0,15 33,44 50,44 10,0 22,-6 27,-12 z m -107,-33 c 0,-8 -16,-32 -35,-54 -19,-21 -35,-42 -35,-47 0,-5 -9,-24 -21,-43 -26,-42 -42,-30 -42,33 0,62 50,126 99,126 24,0 34,-5 34,-15 z m -3156,-53 c 12,16 15,15 41,-13 27,-31 27,-33 19,-113 -8,-71 -12,-82 -34,-93 -13,-7 -27,-8 -30,-4 -9,14 -48,22 -55,11 -3,-5 -15,-10 -26,-10 -13,0 -19,7 -19,23 0,38 20,199 26,209 3,4 19,0 35,-9 29,-17 31,-17 43,-1 z m 2956,-14 c 0,-6 8,-20 18,-31 16,-20 16,-20 -1,-14 -10,4 -25,7 -33,7 -14,0 -20,41 -8,53 9,9 24,-1 24,-15 z m -581,-128 c -4,-145 -8,-152 -69,-146 l -35,3 1,79 c 1,63 6,91 27,137 22,49 30,57 52,57 h 27 z m 65,73 c -4,-32 -11,-65 -15,-73 -6,-9 -7,11 -3,50 4,36 9,68 11,73 11,18 13,3 7,-50 z m -200,-10 c -4,-21 -6,-77 -5,-125 2,-73 0,-88 -12,-88 -9,0 -17,8 -20,18 -2,12 -8,8 -19,-18 l -16,-35 -1,74 c -1,63 4,85 30,143 35,75 56,90 43,31 z m -79,8 c -2,-4 -9,-36 -14,-71 -12,-71 -30,-103 -29,-49 0,19 5,39 10,46 5,6 8,22 7,35 -4,43 0,58 16,52 8,-4 13,-9 10,-13 z m -2407,-40 c 6,-55 -6,-95 -39,-131 l -30,-35 4,38 c 3,32 0,37 -18,37 -41,0 -125,30 -125,45 0,17 23,30 109,61 84,29 95,27 99,-15 z m 2102,35 c 0,-2 -16,-27 -35,-56 -34,-50 -35,-51 -35,-22 0,29 38,82 60,82 5,0 10,-2 10,-4 z m 1105,-6 c 3,-5 -2,-10 -12,-10 -11,-1 -4,-8 20,-21 27,-14 45,-35 64,-74 15,-30 25,-56 22,-57 -33,-21 -114,-56 -118,-52 -3,3 6,16 21,29 22,19 24,24 12,29 -9,3 -26,3 -40,0 -23,-6 -24,-4 -24,42 0,83 10,124 31,124 10,0 21,-4 24,-10 z m -3699,-17 c 7,-10 14,-28 14,-40 0,-32 17,-37 24,-8 9,33 23,32 31,-4 10,-46 -16,-94 -64,-119 -54,-29 -60,-28 -30,5 24,26 23,27 -28,6 -15,-6 -16,1 -10,72 9,99 31,130 63,88 z m 3952,-20 c -21,-20 -41,-33 -45,-29 -9,9 51,66 69,66 7,0 -4,-17 -24,-37 z m -109,3 c 8,-10 10,-30 6,-61 -6,-37 -10,-43 -21,-34 -7,6 -16,26 -20,45 -10,55 9,82 35,50 z m -260,-157 c -15,-30 -32,-23 -27,11 3,17 1,33 -4,36 -12,8 -10,72 4,97 11,20 13,14 25,-52 8,-50 9,-80 2,-92 z m -103,99 c -3,-29 -6,-61 -6,-70 0,-10 -4,-18 -10,-18 -5,0 -10,13 -10,29 0,29 -15,52 -47,70 -30,16 -7,41 38,41 h 42 z m -1421,3 c -3,-6 -11,-11 -17,-11 -6,0 -6,6 2,15 14,17 26,13 15,-4 z m 1227,-37 c -2,-13 -13,-31 -23,-40 -18,-16 -19,-16 -19,17 0,19 8,45 17,58 15,23 17,23 23,6 4,-10 5,-29 2,-41 z m -785,14 c -3,-8 -6,-5 -6,6 -1,11 2,17 5,13 3,-3 4,-12 1,-19 z m -2345,-10 c -7,-7 -12,-8 -12,-2 0,6 3,14 7,17 3,4 9,5 12,2 2,-3 -1,-11 -7,-17 z m 3008,-18 c -7,-16 -16,-30 -21,-30 -16,0 -9,42 8,56 24,17 28,10 13,-26 z m 225,-27 c -10,-21 -20,-33 -22,-26 -5,14 26,77 34,69 3,-3 -2,-22 -12,-43 z m -3670,16 c 4,-12 4,-55 0,-96 -6,-70 -10,-79 -47,-119 -22,-24 -45,-44 -51,-44 -6,0 -8,20 -5,50 l 5,50 h -31 c -34,0 -96,-33 -96,-51 0,-6 -8,-9 -17,-7 -10,2 -28,-8 -40,-22 -12,-14 -23,-23 -26,-20 -3,3 -8,37 -12,76 -7,69 -6,73 22,102 18,20 50,38 93,51 36,11 83,26 105,35 58,22 92,20 100,-5 z m 3025,12 c 0,-12 -29,-23 -41,-15 -18,10 -9,24 16,24 14,0 25,-4 25,-9 z m -2594,-39 c -23,-23 -33,-6 -10,19 12,13 20,16 22,9 3,-7 -3,-19 -12,-28 z m 149,18 c 0,-7 -6,-15 -12,-17 -8,-3 -13,4 -13,17 0,13 5,20 13,18 6,-3 12,-11 12,-18 z m 2556,-27 c -8,-15 -10,-15 -11,-2 0,17 10,32 18,25 2,-3 -1,-13 -7,-23 z m 29,-13 -8,-35 -1,31 c -1,17 2,34 6,37 11,12 12,3 3,-33 z m 461,17 c -10,-9 -11,-8 -5,6 3,10 9,15 12,12 3,-3 0,-11 -7,-18 z m -821,3 c 0,-5 -4,-10 -10,-10 -5,0 -10,5 -10,10 0,6 5,10 10,10 6,0 10,-4 10,-10 z m 145,0 c -3,-5 -11,-10 -16,-10 -6,0 -7,5 -4,10 3,6 11,10 16,10 6,0 7,-4 4,-10 z m -835,-42 -1,-43 -14,34 c -15,33 -13,51 6,51 5,0 9,-19 9,-42 z m 1307,20 c -3,-8 -6,-5 -6,6 -1,11 2,17 5,13 3,-3 4,-12 1,-19 z m 760,-10 c -3,-7 -5,-2 -5,12 0,14 2,19 5,13 2,-7 2,-19 0,-25 z m -680,0 c -3,-8 -6,-5 -6,6 -1,11 2,17 5,13 3,-3 4,-12 1,-19 z m -2417,-3 c -7,-8 -17,-15 -22,-15 -6,0 -5,7 2,15 7,8 17,15 22,15 6,0 5,-7 -2,-15 z m 2300,-9 c 0,-3 -4,-8 -10,-11 -5,-3 -10,-1 -10,4 0,6 5,11 10,11 6,0 10,-2 10,-4 z m -3821,-68 c 20,-64 24,-108 10,-108 -7,0 -21,-7 -31,-17 -17,-15 -18,-15 -18,6 0,18 -3,20 -19,11 -26,-13 -31,-13 -31,3 0,8 11,24 25,37 31,29 32,40 4,33 -19,-5 -20,-4 -10,15 13,25 40,52 51,52 5,0 13,-15 19,-32 z m 464,-50 c -11,-21 -18,-4 -14,30 l 5,37 6,-30 c 4,-16 5,-33 3,-37 z m 236,8 c -11,-9 -69,-14 -69,-6 0,6 17,10 37,10 20,0 34,-2 32,-4 z m 113,-12 c -12,-8 -27,-12 -32,-9 -17,10 -1,25 28,25 h 26 z m 203,-41 c -4,-32 -8,-59 -8,-59 -1,-1 -12,-5 -24,-8 -19,-6 -22,-3 -25,26 -3,32 -4,31 -23,-22 l -20,-55 -3,74 c -2,41 -1,80 2,88 4,8 23,13 57,13 h 51 z m 542,5 c -15,-35 -33,-58 -55,-70 -31,-17 -32,-17 -32,2 0,24 -6,25 -26,5 -9,-8 -20,-15 -25,-15 -18,0 -8,29 19,52 15,13 28,30 30,36 4,23 -35,-5 -74,-53 -36,-44 -62,-60 -50,-30 3,8 1,15 -4,15 -6,0 -10,-4 -10,-10 0,-5 -7,-10 -15,-10 -23,0 -18,16 11,35 14,9 23,19 20,22 -3,3 -23,-6 -44,-21 -21,-14 -44,-26 -52,-26 -7,0 -21,-6 -29,-14 -9,-7 -27,-17 -41,-20 -21,-6 -17,0 22,38 48,47 51,59 9,29 -32,-22 -104,-35 -113,-20 -6,9 -8,8 -8,-1 0,-7 -5,-10 -11,-7 -5,4 -20,-1 -31,-12 l -20,-18 7,55 c 12,100 -18,90 280,90 h 265 z m 243,48 c 0,-2 -25,-22 -55,-44 -30,-23 -55,-37 -55,-31 0,6 -12,-3 -26,-20 -39,-47 -52,-41 -46,20 5,56 -11,63 -21,9 -4,-16 -12,-30 -18,-30 -11,0 -8,26 11,75 9,24 12,25 110,25 55,0 100,-2 100,-4 z m 570,-14 c 0,-23 -71,-58 -92,-46 -9,6 -6,10 12,16 18,6 13,7 -17,4 -23,-2 -42,-1 -41,2 2,20 -3,24 -14,11 -7,-9 -33,-21 -58,-28 -41,-12 -134,-70 -152,-96 -5,-6 -8,-5 -8,4 0,11 37,81 43,81 1,0 20,7 42,15 l 40,14 -42,1 c -41,0 -56,14 -36,33 3,4 78,7 165,7 147,0 158,-1 158,-18 z m 120,-9 c 0,-52 -11,-74 -34,-71 -15,2 -21,10 -20,26 1,37 -13,25 -25,-23 -14,-56 -31,-59 -31,-5 0,25 6,42 16,48 15,8 15,10 0,15 -9,4 -16,13 -16,22 0,12 12,15 55,15 53,0 55,-1 55,-27 z m 188,-9 c 3,-35 -9,-44 -65,-49 -20,-2 -33,1 -33,8 0,7 -7,3 -15,-7 -14,-18 -15,-19 -15,-2 0,16 -3,15 -20,-5 l -19,-24 -1,26 c 0,15 3,41 6,58 l 7,32 76,-3 76,-3 z m 164,5 c 6,-38 -1,-79 -13,-79 -5,0 -9,8 -9,18 -1,16 -1,16 -14,0 -15,-21 -26,-23 -26,-6 0,7 12,23 28,35 20,18 22,21 7,16 -11,-3 -26,-11 -33,-16 -16,-13 -20,-8 -28,31 l -6,32 h 45 c 42,0 45,-2 49,-31 z m 63,21 c 7,-12 -12,-40 -26,-40 -10,0 -12,34 -2,43 9,10 21,9 28,-3 z m 135,6 c 0,-24 -36,-79 -57,-87 -32,-12 -35,-10 -43,46 l -7,45 h 54 c 29,0 53,-2 53,-4 z m 184,-15 c -18,-11 -35,-24 -38,-30 -4,-5 -13,-8 -21,-4 -8,3 -15,0 -15,-5 0,-6 -14,-20 -30,-32 l -30,-22 3,51 c 3,56 -8,68 -18,22 -3,-16 -13,-32 -22,-35 -11,-5 -14,-2 -9,10 3,9 9,27 12,40 6,23 9,24 103,24 h 96 z m 176,-1 c -12,-22 -30,-18 -30,6 0,8 9,14 20,14 18,0 19,-3 10,-20 z m 50,0 c -6,-11 -13,-20 -15,-20 -3,0 -5,9 -5,20 0,11 7,20 15,20 13,0 14,-4 5,-20 z m 83,13 c -7,-2 -21,-2 -30,0 -10,3 -4,5 12,5 17,0 24,-2 18,-5 z m 157,-2 c 0,-14 -9,-18 -55,-25 -34,-6 -42,-4 -53,14 -12,19 -10,20 48,20 33,0 60,-4 60,-9 z m 150,-1 c 0,-5 -8,-10 -18,-10 -10,0 -23,-5 -29,-11 -6,-6 -19,-9 -29,-6 -17,3 -16,5 6,16 25,11 25,11 -5,8 -16,-2 -38,-8 -48,-12 -13,-6 -16,-4 -11,9 5,12 21,16 70,16 36,0 64,-4 64,-10 z m 157,-42 c -6,-49 -18,-68 -44,-68 -6,0 -13,15 -15,33 -4,31 -4,31 -17,-16 -7,-26 -17,-50 -21,-52 -5,-3 -10,31 -12,75 l -3,80 h 59 59 z m 193,28 c 0,-53 -16,-73 -62,-78 -24,-2 -45,-1 -46,4 -2,4 -9,5 -15,1 -30,-19 -37,-11 -37,43 v 54 h 80 c 78,0 80,-1 80,-24 z m 150,-6 c 0,-23 -5,-31 -24,-36 -14,-3 -32,-14 -42,-25 -9,-10 -25,-19 -35,-19 -14,0 -17,10 -18,55 v 55 h 59 c 60,0 60,0 60,-30 z m 210,23 c 0,-4 -8,-26 -17,-49 -12,-29 -27,-46 -50,-57 -31,-14 -33,-14 -33,6 0,20 -1,20 -20,2 -16,-15 -23,-16 -33,-6 -9,10 -5,19 22,42 41,34 34,52 -8,21 l -29,-21 -6,22 c -12,46 -10,47 84,47 50,0 90,-3 90,-7 z m 59,-20 -1,-28 -8,25 c -7,24 -7,23 -15,-12 -4,-21 -14,-43 -23,-50 -13,-11 -14,-10 -9,14 14,53 27,78 42,78 10,0 15,-9 14,-27 z m -1889,2 c 0,-8 -4,-15 -10,-15 -5,0 -10,7 -10,15 0,8 5,15 10,15 6,0 10,-7 10,-15 z m -1899,-28 c -13,-12 -20,-15 -16,-7 14,26 28,41 33,35 3,-3 -5,-16 -17,-28 z m 2520,5 c 19,-19 19,-19 -1,-37 -15,-14 -20,-15 -20,-4 0,8 -3,24 -6,37 -8,27 0,28 27,4 z m 531,-37 c -2,-30 -8,-55 -13,-55 -10,0 -12,70 -3,94 12,32 19,15 16,-39 z m -323,9 c -15,-18 -35,-18 -43,1 -7,19 24,37 42,23 9,-8 9,-14 1,-24 z m 277,20 c -3,-9 -9,-28 -13,-42 l -6,-27 -8,29 c -5,19 -4,35 3,43 15,18 31,16 24,-3 z m -1466,-63 c 0,-33 -5,-63 -10,-66 -7,-4 -9,3 -6,19 3,14 0,26 -5,26 -5,0 -9,9 -9,21 0,13 -4,18 -12,13 -7,-5 -8,-2 -3,7 32,56 45,51 45,-20 z m 370,44 c 0,-8 -4,-15 -10,-15 -5,0 -10,7 -10,15 0,8 5,15 10,15 6,0 10,-7 10,-15 z m 177,-22 c -3,-3 -11,-2 -17,2 -8,5 -7,11 2,22 12,15 13,14 16,-1 2,-10 1,-20 -1,-23 z m 2423,15 c 0,-13 -5,-30 -10,-38 -8,-13 -10,-12 -10,3 0,9 -5,17 -10,17 -6,0 -5,8 2,20 17,26 28,25 28,-2 z m -985,-8 c 8,-25 -4,-48 -15,-29 -7,10 -12,10 -23,0 -11,-8 -17,-9 -22,-1 -6,10 31,49 47,50 4,0 9,-9 13,-20 z m -3471,-37 c -36,-26 -49,-14 -18,18 24,26 30,28 33,13 2,-10 -5,-24 -15,-31 z m 1803,12 c -4,-8 -14,-15 -23,-15 -16,0 -16,2 1,20 20,22 31,20 22,-5 z m 805,-7 c -7,-7 -12,-8 -12,-2 0,14 12,26 19,19 2,-3 -1,-11 -7,-17 z m 696,-10 c -3,-7 -13,-15 -24,-17 -16,-3 -17,-1 -5,13 16,19 34,21 29,4 z M 3807,3988 c -3,-8 -6,-5 -6,6 -1,11 2,17 5,13 3,-3 4,-12 1,-19 z" id="path3" class="svg-elem-3"></path>
    <path d="m 3870,6652 c 0,-6 12,-24 26,-41 14,-17 21,-31 15,-31 -22,0 -10,-17 28,-38 60,-34 70,-82 21,-102 -34,-14 -37,-22 -15,-40 8,-7 15,-9 15,-5 0,4 6,2 14,-4 15,-13 42,-6 49,13 3,8 17,16 31,20 39,10 115,67 109,82 -2,7 -19,14 -36,16 -18,2 -32,8 -32,13 0,19 -16,35 -33,35 -10,0 -26,13 -35,30 -10,16 -26,34 -36,39 -28,16 -121,25 -121,13 z" id="path4" class="svg-elem-4"></path>
    <path d="m 2640,5377 c 0,-16 35,-69 51,-77 23,-13 25,-45 4,-54 -21,-8 -19,-23 5,-31 13,-4 36,5 70,27 49,32 62,48 38,48 -6,0 -18,7 -27,15 -9,8 -31,28 -49,45 -21,19 -43,30 -62,30 -17,0 -30,-2 -30,-3 z" id="path5" class="svg-elem-5"></path>
    <path d="m 3640,5209 c 7,-13 20,-32 28,-42 12,-13 13,-20 4,-29 -33,-33 1,-37 52,-7 l 36,21 -27,21 c -16,12 -32,27 -38,34 -5,6 -23,15 -39,19 -27,6 -28,6 -16,-17 z" id="path6" class="svg-elem-6"></path>
    <path d="m 4805,3746 c -67,-21 -100,-43 -149,-97 -161,-180 -211,-468 -116,-665 88,-182 291,-217 464,-81 36,29 136,167 136,189 0,17 -93,108 -110,108 -10,0 -32,-24 -53,-57 -47,-76 -86,-112 -129,-120 -28,-4 -40,-1 -56,15 -63,63 -54,293 19,440 33,67 64,95 101,90 31,-4 34,-33 13,-118 -9,-38 -14,-74 -10,-79 4,-7 50,-11 116,-11 126,0 122,-3 135,108 12,107 -38,217 -118,258 -17,9 -36,13 -44,10 -8,-3 -13,-2 -10,3 14,22 -125,27 -189,7 z m 167,-13 c -6,-2 -10,-9 -6,-14 3,-5 0,-9 -5,-9 -6,0 -11,7 -11,15 0,8 8,15 18,14 10,0 12,-3 4,-6 z m 83,-193 c 3,-5 -1,-10 -10,-10 -9,0 -13,5 -10,10 3,6 8,10 10,10 2,0 7,-4 10,-10 z m -48,-16 c -3,-3 -12,-4 -19,-1 -8,3 -5,6 6,6 11,1 17,-2 13,-5 z m 43,-14 c 0,-5 -5,-10 -11,-10 -5,0 -7,5 -4,10 3,6 8,10 11,10 2,0 4,-4 4,-10 z m -383,-32 c -3,-8 -6,-5 -6,6 -1,11 2,17 5,13 3,-3 4,-12 1,-19 z m -17,-52 c 0,-2 -7,-7 -16,-10 -8,-3 -12,-2 -9,4 6,10 25,14 25,6 z" id="path7" class="svg-elem-7"></path>
    <path d="m 6315,3754 c -74,-11 -226,-48 -234,-58 -11,-13 -56,-837 -48,-860 5,-13 25,-16 116,-16 178,0 265,28 350,112 88,87 139,184 165,311 38,181 5,358 -81,439 -56,53 -174,85 -268,72 z m 255,-204 c 0,-5 -7,-10 -16,-10 -8,0 -12,5 -9,10 3,6 10,10 16,10 5,0 9,-4 9,-10 z m -165,-22 c 27,-12 55,-84 55,-140 0,-27 15,-39 22,-17 2,7 10,4 18,-7 13,-15 13,-17 0,-12 -22,7 -47,-22 -55,-67 -20,-111 -91,-207 -163,-221 -29,-6 -32,-4 -32,19 0,14 -4,29 -10,32 -6,4 -4,14 5,28 10,16 16,67 19,185 3,90 9,169 13,177 5,8 26,19 48,24 54,12 51,12 80,-1 z m -308,-105 c -3,-10 -5,-2 -5,17 0,19 2,27 5,18 2,-10 2,-26 0,-35 z m 466,-183 c 3,-11 1,-23 -4,-26 -5,-3 -9,6 -9,20 0,31 6,34 13,6 z m -453,-309 c 0,-6 -4,-13 -10,-16 -5,-3 -10,1 -10,9 0,9 5,16 10,16 6,0 10,-4 10,-9 z" id="path8" class="svg-elem-8"></path>
    <path d="m 6771,3738 c -4,-13 -11,-79 -15,-148 -3,-69 -9,-147 -12,-175 -12,-112 -21,-570 -11,-582 11,-15 203,-18 225,-5 16,11 14,213 -2,225 -8,5 -8,9 1,15 7,4 12,23 11,42 -1,42 20,395 31,530 4,52 6,101 3,108 -3,8 -35,12 -113,12 -104,0 -110,-1 -118,-22 z m 71,-22 c -3,-6 -7,-17 -9,-25 -1,-8 -8,-18 -15,-22 -7,-5 -9,-9 -4,-9 5,0 2,-8 -6,-17 -9,-10 -18,-25 -21,-33 -3,-8 -5,15 -4,51 l 1,66 h 33 c 20,0 30,-4 25,-11 z m 48,10 c 0,-2 -7,-6 -15,-10 -8,-3 -15,-1 -15,4 0,6 7,10 15,10 8,0 15,-2 15,-4 z m -96,-218 c -9,-156 -23,-301 -30,-307 -4,-4 -4,23 -1,59 3,36 9,122 13,193 4,70 10,127 15,127 4,0 5,-33 3,-72 z m 128,-340 c -7,-7 -12,-8 -12,-2 0,14 12,26 19,19 2,-3 -1,-11 -7,-17 z m -32,-68 c 0,-5 -2,-10 -4,-10 -3,0 -8,5 -11,10 -3,6 -1,10 4,10 6,0 11,-4 11,-10 z m 30,-74 c 0,-2 -7,-6 -15,-10 -8,-3 -15,-1 -15,4 0,6 7,10 15,10 8,0 15,-2 15,-4 z m 0,-81 c 0,-8 -2,-15 -4,-15 -2,0 -6,7 -10,15 -3,8 -1,15 4,15 6,0 10,-7 10,-15 z m 10,-41 c 0,-8 -5,-12 -10,-9 -6,4 -8,11 -5,16 9,14 15,11 15,-7 z" id="path9" class="svg-elem-9"></path>
    <path d="m 3302,3738 c -51,-11 -50,-10 -155,-273 -79,-199 -187,-535 -190,-595 l -2,-35 105,-7 c 58,-3 113,-4 122,-2 11,3 21,26 31,70 9,36 17,67 19,69 2,2 47,12 101,23 l 97,19 5,-21 c 2,-11 6,-49 8,-83 3,-34 8,-66 12,-72 4,-7 50,-11 121,-11 97,0 116,2 121,17 7,18 -86,553 -123,707 -40,165 -76,207 -176,205 -29,-1 -72,-5 -96,-11 z m 88,-442 c 6,-43 10,-79 8,-81 -8,-8 -93,-8 -92,1 1,5 14,51 30,103 31,104 35,103 54,-23 z m -97,2 c -19,-46 -37,-91 -40,-100 -3,-10 -9,-18 -13,-18 -7,0 3,34 27,90 6,14 19,44 28,68 10,23 21,42 26,42 4,0 -9,-37 -28,-82 z m 244,-63 c 0,-18 -19,-15 -25,3 -2,7 3,12 11,12 7,0 14,-7 14,-15 z m -27,-65 c 0,-5 -2,-10 -4,-10 -3,0 -8,5 -11,10 -3,6 -1,10 4,10 6,0 11,-4 11,-10 z m 40,-100 c 0,-5 -5,-10 -11,-10 -5,0 -7,5 -4,10 3,6 8,10 11,10 2,0 4,-4 4,-10 z m -345,-20 c 3,-5 -1,-10 -9,-10 -9,0 -16,5 -16,10 0,6 4,10 9,10 6,0 13,-4 16,-10 z m 368,-17 c -4,-10 -2,-14 5,-9 7,4 13,-7 17,-31 4,-21 11,-54 16,-73 11,-44 11,-50 -1,-50 -5,0 -14,18 -21,39 -8,27 -19,41 -34,45 -17,4 -23,13 -21,31 0,14 5,25 9,25 5,0 5,9 2,20 -5,16 -2,20 14,20 15,0 19,-4 14,-17 z m -438,-63 c -3,-5 -11,-10 -16,-10 -6,0 -7,5 -4,10 3,6 11,10 16,10 6,0 7,-4 4,-10 z" id="path10" class="svg-elem-10"></path>
    <path d="m 3953,3731 c -67,-9 -127,-20 -132,-26 -11,-12 -67,-836 -58,-859 9,-24 202,-24 211,0 3,9 6,69 6,134 0,65 3,121 8,123 4,3 21,8 38,11 31,7 32,6 86,-91 31,-54 65,-119 76,-146 12,-26 28,-50 36,-53 13,-5 186,102 186,115 0,3 -31,64 -69,135 l -69,130 43,42 c 49,48 72,88 91,159 42,155 -20,304 -139,333 -60,16 -164,13 -314,-7 z m 231,-197 c 21,-20 20,-40 -3,-89 -24,-55 -69,-90 -131,-105 -28,-7 -53,-11 -55,-9 -2,3 2,47 8,99 l 12,94 50,12 c 71,17 101,16 119,-2 z" id="path11" class="svg-elem-11"></path>
    <path d="m 5572,3738 c -51,-11 -50,-10 -155,-273 -79,-199 -187,-535 -190,-595 l -2,-35 105,-7 c 58,-3 113,-4 122,-2 11,3 21,26 31,70 9,36 17,67 19,69 2,2 47,12 101,23 l 97,19 5,-21 c 2,-11 6,-49 8,-83 3,-34 8,-66 12,-72 4,-7 50,-11 121,-11 97,0 116,2 121,17 7,18 -86,553 -123,707 -40,165 -76,207 -176,205 -29,-1 -72,-5 -96,-11 z m 88,-442 c 6,-43 10,-79 8,-81 -8,-8 -93,-8 -92,1 1,5 14,51 30,103 31,104 35,103 54,-23 z m -97,2 c -19,-46 -37,-91 -40,-100 -3,-10 -9,-18 -13,-18 -7,0 3,34 27,90 6,14 19,44 28,68 10,23 21,42 26,42 4,0 -9,-37 -28,-82 z m 244,-63 c 0,-18 -19,-15 -25,3 -2,7 3,12 11,12 7,0 14,-7 14,-15 z m -27,-65 c 0,-5 -2,-10 -4,-10 -3,0 -8,5 -11,10 -3,6 -1,10 4,10 6,0 11,-4 11,-10 z m 40,-100 c 0,-5 -5,-10 -11,-10 -5,0 -7,5 -4,10 3,6 8,10 11,10 2,0 4,-4 4,-10 z m -345,-20 c 3,-5 -1,-10 -9,-10 -9,0 -16,5 -16,10 0,6 4,10 9,10 6,0 13,-4 16,-10 z m 368,-17 c -4,-10 -2,-14 5,-9 7,4 13,-7 17,-31 4,-21 11,-54 16,-73 11,-44 11,-50 -1,-50 -5,0 -14,18 -21,39 -8,27 -19,41 -34,45 -17,4 -23,13 -21,31 0,14 5,25 9,25 5,0 5,9 2,20 -5,16 -2,20 14,20 15,0 19,-4 14,-17 z m -438,-63 c -3,-5 -11,-10 -16,-10 -6,0 -7,5 -4,10 3,6 11,10 16,10 6,0 7,-4 4,-10 z" id="path12" class="svg-elem-12"></path>
    <path d="m 7372,3738 c -51,-11 -50,-10 -155,-273 -79,-199 -187,-535 -190,-595 l -2,-35 105,-7 c 58,-3 113,-4 122,-2 11,3 21,26 31,70 9,36 17,67 19,69 2,2 47,12 101,23 l 97,19 5,-21 c 2,-11 6,-49 8,-83 3,-34 8,-66 12,-72 4,-7 50,-11 121,-11 97,0 116,2 121,17 7,18 -86,553 -123,707 -40,165 -76,207 -176,205 -29,-1 -72,-5 -96,-11 z m 88,-442 c 6,-43 10,-79 8,-81 -8,-8 -93,-8 -92,1 1,5 14,51 30,103 31,104 35,103 54,-23 z m -97,2 c -19,-46 -37,-91 -40,-100 -3,-10 -9,-18 -13,-18 -7,0 3,34 27,90 6,14 19,44 28,68 10,23 21,42 26,42 4,0 -9,-37 -28,-82 z m 244,-63 c 0,-18 -19,-15 -25,3 -2,7 3,12 11,12 7,0 14,-7 14,-15 z m -27,-65 c 0,-5 -2,-10 -4,-10 -3,0 -8,5 -11,10 -3,6 -1,10 4,10 6,0 11,-4 11,-10 z m 40,-100 c 0,-5 -5,-10 -11,-10 -5,0 -7,5 -4,10 3,6 8,10 11,10 2,0 4,-4 4,-10 z m -345,-20 c 3,-5 -1,-10 -9,-10 -9,0 -16,5 -16,10 0,6 4,10 9,10 6,0 13,-4 16,-10 z m 368,-17 c -4,-10 -2,-14 5,-9 7,4 13,-7 17,-31 4,-21 11,-54 16,-73 11,-44 11,-50 -1,-50 -5,0 -14,18 -21,39 -8,27 -19,41 -34,45 -17,4 -23,13 -21,31 0,14 5,25 9,25 5,0 5,9 2,20 -5,16 -2,20 14,20 15,0 19,-4 14,-17 z m -438,-63 c -3,-5 -11,-10 -16,-10 -6,0 -7,5 -4,10 3,6 11,10 16,10 6,0 7,-4 4,-10 z" id="path13" class="svg-elem-13"></path>
  </g>
</svg>
